<?xml version="1.0" encoding="UTF-8"?>
<svg width="1100px" height="243px" viewBox="0 0 1100 243" version="1.1" xmlns="http://www.w3.org/2000/svg" xmlns:xlink="http://www.w3.org/1999/xlink">
    <!-- Generator: Sketch 52.4 (67378) - http://www.bohemiancoding.com/sketch -->
    <title>Group 13</title>
    <desc>Created with Sketch.</desc>
    <defs>
        <polygon id="path-1" points="0.000195686886 0.7544 269.279082 0.7544 269.279082 243 0.000195686886 243"></polygon>
        <polygon id="path-3" points="0 243.246 1100 243.246 1100 1 0 1"></polygon>
    </defs>
    <g id="Page-1" stroke="none" stroke-width="1" fill="none" fill-rule="evenodd">
        <g id="Desktop-HD" transform="translate(-170.000000, -392.000000)">
            <g id="Group-13" transform="translate(170.000000, 391.000000)">
                <g id="Group-3" transform="translate(0.000000, 0.246000)">
                    <mask id="mask-2" fill="white">
                        <use xlink:href="#path-1"></use>
                    </mask>
                    <g id="Clip-2"></g>
                    <path d="M177.7529,82.9694 L160.5799,52.9544 L194.7949,52.9544 L177.7529,82.9694 Z M245.0039,0.7544 L24.1109,0.7544 C15.6939,1.1494 8.0269,5.6884 3.6619,12.8624 C-0.7041,20.0354 -1.1961,28.9024 2.3489,36.5114 L4.7089,40.5564 L113.9099,228.9994 L115.4829,231.6084 C121.6799,240.9714 133.3259,245.1634 144.1049,241.9074 C154.8829,238.6524 162.2269,228.7274 162.1529,217.5144 C162.0829,213.7994 161.1879,210.1444 159.5309,206.8134 L157.3019,203.2904 L72.0909,52.9544 L99.8829,52.9544 L156.3849,147.1754 L158.8759,151.4814 C163.6539,158.0954 171.3379,162.0174 179.5229,162.0174 C187.7069,162.0174 195.3919,158.0954 200.1699,151.4814 L202.1369,148.0894 L264.1439,41.2094 L267.2909,35.8584 C270.5129,28.2304 269.7869,19.5154 265.3449,12.5194 C260.9039,5.5244 253.3089,1.1314 245.0039,0.7544 Z" id="Fill-1" fill="#4D7DED" mask="url(#mask-2)"></path>
                </g>
                <polygon id="Fill-4" fill="#414241" points="329.8223 43.9346 439.6793 43.9346 439.6793 74.4716 368.1013 74.4716 368.1013 107.0966 433.6493 107.0966 433.6493 137.6336 368.1013 137.6336 368.1013 189.8336 329.8223 189.8336"></polygon>
                <mask id="mask-4" fill="white">
                    <use xlink:href="#path-3"></use>
                </mask>
                <g id="Clip-7"></g>
                <polygon id="Fill-6" fill="#414241" mask="url(#mask-4)" points="458.163 190.226 495.525 190.226 495.525 35.322 458.163 35.322"></polygon>
                <path d="M525.021,190.226 L562.121,190.226 L562.121,77.343 L525.021,77.343 L525.021,190.226 Z M557.401,30.885 C561.152,34.706 563.146,39.902 562.907,45.24 C563.094,50.53 561.105,55.667 557.401,59.464 C549.462,66.955 537.024,66.955 529.085,59.464 C525.381,55.667 523.393,50.53 523.579,45.24 C523.341,39.902 525.334,34.706 529.085,30.885 C537.076,23.523 549.411,23.523 557.401,30.885 Z" id="Fill-8" fill="#414241" mask="url(#mask-4)"></path>
                <path d="M695.4434,87.5215 C703.1044,95.9765 707.1484,107.0725 706.7174,118.4505 L706.7174,190.2255 L669.6184,190.2255 L669.6184,129.6725 C669.9314,124.1375 668.0484,118.7015 664.3744,114.5355 C660.7024,110.7935 655.5954,108.7975 650.3474,109.0545 C644.6814,108.9825 639.2164,111.1395 635.1404,115.0575 C631.0194,119.1905 628.5094,124.6495 628.0614,130.4565 L628.0614,190.2255 L590.6994,190.2255 L590.6994,77.3425 L628.0614,77.3425 L628.0614,95.7435 C631.8014,89.4615 637.1964,84.3175 643.6614,80.8665 C650.4394,77.4495 657.9584,75.7465 665.5534,75.9075 C676.7224,75.3735 687.5914,79.5965 695.4434,87.5215" id="Fill-9" fill="#414241" mask="url(#mask-4)"></path>
                <polygon id="Fill-10" fill="#414241" mask="url(#mask-4)" points="805.9561 190.2256 782.0971 147.6826 770.5601 159.5576 770.5601 190.2256 733.0671 190.2256 733.0671 35.3216 770.4301 35.3216 770.4301 115.5796 806.7421 77.3426 849.0861 77.3426 807.5291 120.9296 849.8721 190.2256"></polygon>
                <path d="M930.1025,123.9317 C930.3765,118.1117 928.2995,112.4257 924.3335,108.1407 C915.9025,100.2357 902.7455,100.2357 894.3135,108.1407 C890.0975,112.5087 887.3495,118.0717 886.4475,124.0617 L930.1025,123.9317 Z M951.4705,92.3497 C961.9685,104.7967 967.3115,120.7547 966.4155,136.9817 L966.4155,143.6367 L887.7585,143.6367 C889.1845,149.4537 892.5025,154.6387 897.1975,158.3827 C901.9315,161.8627 907.7035,163.6547 913.5835,163.4727 C918.4525,163.4947 923.2715,162.5177 927.7425,160.6017 C932.6495,158.6377 937.1085,155.7077 940.8515,151.9887 L960.3845,171.4337 C954.5335,177.9347 947.2705,183.0227 939.1475,186.3107 C930.1775,189.8267 920.6015,191.5557 910.9615,191.3997 C899.6725,191.8327 888.4535,189.4557 878.3205,184.4837 C869.5125,180.0047 862.2535,173.0057 857.4755,164.3867 C852.5255,155.1627 850.0415,144.8267 850.2655,134.3707 C850.0515,123.7357 852.5795,113.2217 857.6075,103.8337 C862.3245,95.0837 869.5295,87.9107 878.3205,83.2157 C887.9095,78.2707 898.5925,75.8037 909.3895,76.0377 C925.1225,75.1837 940.4595,81.1297 951.4705,92.3497 Z" id="Fill-11" fill="#414241" mask="url(#mask-4)"></path>
                <path d="M1055.9521,154.5987 C1060.5981,148.8507 1062.9751,141.6117 1062.6381,134.2417 C1063.0201,126.8247 1060.6391,119.5287 1055.9521,113.7527 C1051.4291,108.7717 1044.9991,105.9307 1038.2551,105.9307 C1031.5101,105.9307 1025.0801,108.7717 1020.5561,113.7527 C1015.8421,119.4707 1013.4151,126.7197 1013.7401,134.1107 C1013.4151,141.5007 1015.8421,148.7497 1020.5561,154.4677 C1024.9611,159.6117 1031.4691,162.4907 1038.2551,162.2977 C1045.0091,162.6137 1051.5331,159.8227 1055.9521,154.7297 L1055.9521,154.5987 Z M1100.0001,35.3217 L1100.0001,190.2257 L1062.6381,190.2257 L1062.6381,175.6097 C1058.9081,180.7427 1053.9521,184.8697 1048.2181,187.6157 C1042.2271,190.3877 1035.6831,191.7717 1029.0781,191.6617 C1019.3551,191.8257 1009.7781,189.2947 1001.4171,184.3527 C993.5141,179.3817 987.1941,172.2757 983.1951,163.8647 C978.6601,154.3287 976.4161,143.8747 976.6401,133.3277 C976.4341,122.9497 978.6801,112.6687 983.1951,103.3117 C987.1001,95.0637 993.2851,88.0937 1001.0241,83.2157 C1009.2791,78.3907 1018.7221,75.9497 1028.2921,76.1677 C1035.0801,76.0557 1041.8051,77.4837 1047.9561,80.3447 C1053.7161,83.1637 1058.7411,87.2727 1062.6381,92.3497 L1062.6381,35.3217 L1100.0001,35.3217 Z" id="Fill-12" fill="#414241" mask="url(#mask-4)"></path>
            </g>
        </g>
    </g>
</svg>