<?xml version="1.0" encoding="UTF-8"?>
<svg width="270px" height="243px" viewBox="0 0 270 243" version="1.1" xmlns="http://www.w3.org/2000/svg" xmlns:xlink="http://www.w3.org/1999/xlink">
    <!-- Generator: Sketch 53.2 (72643) - https://sketchapp.com -->
    <title>simpleWhite</title>
    <desc>Created with Sketch.</desc>
    <defs>
        <polygon id="path-1" points="0.000195686886 0.0004 269.279082 0.0004 269.279082 242.246 0.000195686886 242.246"></polygon>
    </defs>
    <g id="Page-1" stroke="none" stroke-width="1" fill="none" fill-rule="evenodd">
        <g id="simpleWhite">
            <mask id="mask-2" fill="white">
                <use xlink:href="#path-1"></use>
            </mask>
            <g id="path-1"></g>
            <path d="M177.7529,82.2154 L160.5799,52.2004 L194.7949,52.2004 L177.7529,82.2154 Z M245.0039,0.0004 L24.1109,0.0004 C15.6939,0.3954 8.0269,4.9344 3.6619,12.1084 C-0.7041,19.2814 -1.1961,28.1484 2.3489,35.7574 L4.7089,39.8024 L113.9099,228.2454 L115.4829,230.8544 C121.6799,240.2174 133.3259,244.4094 144.1049,241.1534 C154.8829,237.8984 162.2269,227.9734 162.1529,216.7604 C162.0829,213.0454 161.1879,209.3904 159.5309,206.0594 L157.3019,202.5364 L72.0909,52.2004 L99.8829,52.2004 L156.3849,146.4214 L158.8759,150.7274 C163.6539,157.3414 171.3379,161.2634 179.5229,161.2634 C187.7069,161.2634 195.3919,157.3414 200.1699,150.7274 L202.1369,147.3354 L264.1439,40.4554 L267.2909,35.1044 C270.5129,27.4764 269.7869,18.7614 265.3449,11.7654 C260.9039,4.7704 253.3089,0.3774 245.0039,0.0004 Z" id="Fill-1" fill="#BBBBBB" fill-rule="nonzero" mask="url(#mask-2)"></path>
        </g>
    </g>
</svg>